<?xml version="1.0" encoding="utf-8" standalone="no"?>
<!DOCTYPE svg PUBLIC "-//W3C//DTD SVG 1.1//EN"
  "http://www.w3.org/Graphics/SVG/1.1/DTD/svg11.dtd">
<svg xmlns:xlink="http://www.w3.org/1999/xlink" width="629.28pt" height="217.764pt" viewBox="0 0 629.28 217.764" xmlns="http://www.w3.org/2000/svg" version="1.1">
 <metadata>
  <rdf:RDF xmlns:dc="http://purl.org/dc/elements/1.1/" xmlns:cc="http://creativecommons.org/ns#" xmlns:rdf="http://www.w3.org/1999/02/22-rdf-syntax-ns#">
   <cc:Work>
    <dc:type rdf:resource="http://purl.org/dc/dcmitype/StillImage"/>
    <dc:date>2026-07-11T13:14:16.689328</dc:date>
    <dc:format>image/svg+xml</dc:format>
    <dc:creator>
     <cc:Agent>
      <dc:title>Matplotlib v3.7.5, https://matplotlib.org/</dc:title>
     </cc:Agent>
    </dc:creator>
   </cc:Work>
  </rdf:RDF>
 </metadata>
 <defs>
  <style type="text/css">*{stroke-linejoin: round; stroke-linecap: butt}</style>
 </defs>
 <g id="figure_1">
  <g id="patch_1">
   <path d="M 0 217.764 
L 629.28 217.764 
L 629.28 0 
L 0 0 
z
" style="fill: #ffffff"/>
  </g>
  <g id="axes_1">
   <g id="patch_2">
    <path d="M 30.2832 180.38574 
L 214.6464 180.38574 
L 214.6464 28.8405 
L 30.2832 28.8405 
z
" clip-path="url(#p62e119618c)" style="fill: #dceeff; stroke: #2563a6; stroke-width: 1.05; stroke-linejoin: miter"/>
   </g>
   <g id="patch_3">
    <path d="M 224.0208 180.38574 
L 417.7584 180.38574 
L 417.7584 28.8405 
L 224.0208 28.8405 
z
" clip-path="url(#p62e119618c)" style="fill: #e8f5ee; stroke: #2f855a; stroke-width: 1.05; stroke-linejoin: miter"/>
   </g>
   <g id="patch_4">
    <path d="M 439.632 180.38574 
L 598.9968 180.38574 
L 598.9968 28.8405 
L 439.632 28.8405 
z
" clip-path="url(#p62e119618c)" style="fill: #f8fafc; stroke: #142b3a; stroke-width: 1.05; stroke-linejoin: miter"/>
   </g>
   <g id="patch_5">
    <path d="M 52.1568 67.473864 
L 192.7728 67.473864 
Q 196.52256 67.473864 196.52256 66.1932 
L 196.52256 46.98324 
Q 196.52256 45.702576 192.7728 45.702576 
L 52.1568 45.702576 
Q 48.40704 45.702576 48.40704 46.98324 
L 48.40704 66.1932 
Q 48.40704 67.473864 52.1568 67.473864 
z
" clip-path="url(#p62e119618c)" style="fill: #ffffff; stroke: #2563a6; stroke-linejoin: miter"/>
   </g>
   <g id="patch_6">
    <path d="M 52.1568 95.221584 
L 192.7728 95.221584 
Q 196.52256 95.221584 196.52256 93.94092 
L 196.52256 78.99984 
Q 196.52256 77.719176 192.7728 77.719176 
L 52.1568 77.719176 
Q 48.40704 77.719176 48.40704 78.99984 
L 48.40704 93.94092 
Q 48.40704 95.221584 52.1568 95.221584 
z
" clip-path="url(#p62e119618c)" style="fill: #ffffff; stroke: #2563a6; stroke-linejoin: miter"/>
   </g>
   <g id="patch_7">
    <path d="M 38.40768 118.48698 
L 207.14688 118.48698 
L 207.14688 108.455112 
L 38.40768 108.455112 
z
" clip-path="url(#p62e119618c)" style="fill: #ffffff; stroke: #2563a6; stroke-width: 0.9; stroke-linejoin: miter"/>
   </g>
   <g id="patch_8">
    <path d="M 38.40768 118.48698 
L 66.53088 118.48698 
L 66.53088 108.455112 
L 38.40768 108.455112 
z
" clip-path="url(#p62e119618c)" style="fill: #dceeff; stroke: #2563a6; stroke-width: 0.7; stroke-linejoin: miter"/>
   </g>
   <g id="patch_9">
    <path d="M 66.53088 118.48698 
L 94.65408 118.48698 
L 94.65408 108.455112 
L 66.53088 108.455112 
z
" clip-path="url(#p62e119618c)" style="fill: #dceeff; stroke: #2563a6; stroke-width: 0.7; stroke-linejoin: miter"/>
   </g>
   <g id="patch_10">
    <path d="M 94.65408 118.48698 
L 122.77728 118.48698 
L 122.77728 108.455112 
L 94.65408 108.455112 
z
" clip-path="url(#p62e119618c)" style="fill: #dceeff; stroke: #2563a6; stroke-width: 0.7; stroke-linejoin: miter"/>
   </g>
   <g id="patch_11">
    <path d="M 122.77728 118.48698 
L 150.90048 118.48698 
L 150.90048 108.455112 
L 122.77728 108.455112 
z
" clip-path="url(#p62e119618c)" style="fill: #dceeff; stroke: #2563a6; stroke-width: 0.7; stroke-linejoin: miter"/>
   </g>
   <g id="patch_12">
    <path d="M 150.90048 118.48698 
L 179.02368 118.48698 
L 179.02368 108.455112 
L 150.90048 108.455112 
z
" clip-path="url(#p62e119618c)" style="fill: #dceeff; stroke: #2563a6; stroke-width: 0.7; stroke-linejoin: miter"/>
   </g>
   <g id="patch_13">
    <path d="M 179.02368 118.48698 
L 207.14688 118.48698 
L 207.14688 108.455112 
L 179.02368 108.455112 
z
" clip-path="url(#p62e119618c)" style="fill: #dceeff; stroke: #2563a6; stroke-width: 0.7; stroke-linejoin: miter"/>
   </g>
   <g id="patch_14">
    <path d="M 45.9072 148.582584 
L 199.0224 148.582584 
Q 202.77216 148.582584 202.77216 147.30192 
L 202.77216 134.49528 
Q 202.77216 133.214616 199.0224 133.214616 
L 45.9072 133.214616 
Q 42.15744 133.214616 42.15744 134.49528 
L 42.15744 147.30192 
Q 42.15744 148.582584 45.9072 148.582584 
z
" clip-path="url(#p62e119618c)" style="fill: #fff1da; stroke: #c76a1d; stroke-linejoin: miter"/>
   </g>
   <g id="patch_15">
    <path d="M 45.9072 170.994204 
L 199.0224 170.994204 
Q 202.77216 170.994204 202.77216 169.71354 
L 202.77216 155.83968 
Q 202.77216 154.559016 199.0224 154.559016 
L 45.9072 154.559016 
Q 42.15744 154.559016 42.15744 155.83968 
L 42.15744 169.71354 
Q 42.15744 170.994204 45.9072 170.994204 
z
" clip-path="url(#p62e119618c)" style="fill: #eee7ff; stroke: #7655c7; stroke-linejoin: miter"/>
   </g>
   <g id="patch_16">
    <path d="M 249.0192 78.146064 
L 392.76 78.146064 
Q 396.50976 78.146064 396.50976 76.8654 
L 396.50976 48.05046 
Q 396.50976 46.769796 392.76 46.769796 
L 249.0192 46.769796 
Q 245.26944 46.769796 245.26944 48.05046 
L 245.26944 76.8654 
Q 245.26944 78.146064 249.0192 78.146064 
z
" clip-path="url(#p62e119618c)" style="fill: #ffffff; stroke: #2f855a; stroke-linejoin: miter"/>
   </g>
   <g id="patch_17">
    <path d="M 220.896 119.767644 
L 267.768 119.767644 
Q 271.51776 119.767644 271.51776 118.48698 
L 271.51776 105.68034 
Q 271.51776 104.399676 267.768 104.399676 
L 220.896 104.399676 
Q 217.14624 104.399676 217.14624 105.68034 
L 217.14624 118.48698 
Q 217.14624 119.767644 220.896 119.767644 
z
" clip-path="url(#p62e119618c)" style="fill: #e8f5ee; stroke: #2f855a; stroke-linejoin: miter"/>
   </g>
   <g id="patch_18">
    <path d="M 336.5136 149.649804 
L 405.2592 149.649804 
Q 409.00896 149.649804 409.00896 148.36914 
L 409.00896 124.8903 
Q 409.00896 123.609636 405.2592 123.609636 
L 336.5136 123.609636 
Q 332.76384 123.609636 332.76384 124.8903 
L 332.76384 148.36914 
Q 332.76384 149.649804 336.5136 149.649804 
z
" clip-path="url(#p62e119618c)" style="fill: #ffffff; stroke: #7655c7; stroke-linejoin: miter"/>
   </g>
   <g id="patch_19">
    <path d="M 249.0192 175.263084 
L 392.76 175.263084 
Q 396.50976 175.263084 396.50976 173.98242 
L 396.50976 153.70524 
Q 396.50976 152.424576 392.76 152.424576 
L 249.0192 152.424576 
Q 245.26944 152.424576 245.26944 153.70524 
L 245.26944 173.98242 
Q 245.26944 175.263084 249.0192 175.263084 
z
" clip-path="url(#p62e119618c)" style="fill: #ffffff; stroke: #2f855a; stroke-linejoin: miter"/>
   </g>
   <g id="patch_20">
    <path d="M 458.3808 72.809964 
L 577.1232 72.809964 
Q 580.87296 72.809964 580.87296 71.5293 
L 580.87296 52.31934 
Q 580.87296 51.038676 577.1232 51.038676 
L 458.3808 51.038676 
Q 454.63104 51.038676 454.63104 52.31934 
L 454.63104 71.5293 
Q 454.63104 72.809964 458.3808 72.809964 
z
" clip-path="url(#p62e119618c)" style="fill: #e8f5ee; stroke: #2f855a; stroke-linejoin: miter"/>
   </g>
   <g id="patch_21">
    <path d="M 458.3808 110.162664 
L 577.1232 110.162664 
Q 580.87296 110.162664 580.87296 108.882 
L 580.87296 85.40316 
Q 580.87296 84.122496 577.1232 84.122496 
L 458.3808 84.122496 
Q 454.63104 84.122496 454.63104 85.40316 
L 454.63104 108.882 
Q 454.63104 110.162664 458.3808 110.162664 
z
" clip-path="url(#p62e119618c)" style="fill: #ffffff; stroke: #142b3a; stroke-linejoin: miter"/>
   </g>
   <g id="patch_22">
    <path d="M 458.3808 146.448144 
L 577.1232 146.448144 
Q 580.87296 146.448144 580.87296 145.16748 
L 580.87296 122.75586 
Q 580.87296 121.475196 577.1232 121.475196 
L 458.3808 121.475196 
Q 454.63104 121.475196 454.63104 122.75586 
L 454.63104 145.16748 
Q 454.63104 146.448144 458.3808 146.448144 
z
" clip-path="url(#p62e119618c)" style="fill: #eee7ff; stroke: #7655c7; stroke-linejoin: miter"/>
   </g>
   <g id="patch_23">
    <path d="M 311.5152 100.87785 
L 355.2624 112.08366 
L 311.5152 123.28947 
L 267.768 112.08366 
z
" clip-path="url(#p62e119618c)" style="fill: #ffffff; stroke: #2563a6; stroke-width: 1.05; stroke-linejoin: miter"/>
   </g>
   <g id="text_1">
    <text style="fill: #142b3a; font: 700 6.8px 'DejaVu Sans'" transform="translate(275.805638 110.40967)">Storage admission</text>
    <text style="fill: #142b3a; font: 700 6.8px 'DejaVu Sans'" transform="translate(302.855825 117.457275)">gate</text>
   </g>
   <g id="patch_24">
    <path d="M 122.15232 68.191111 
Q 122.15232 72.596671 122.15232 75.604688 
" clip-path="url(#p62e119618c)" style="fill: none; stroke: #2563a6; stroke-width: 1.25; stroke-linecap: round"/>
    <path d="M 124.25232 71.404688 
L 122.15232 75.604688 
L 120.05232 71.404688 
z
" clip-path="url(#p62e119618c)" style="fill: #2563a6; stroke: #2563a6; stroke-width: 1.25; stroke-linecap: round"/>
   </g>
   <g id="patch_25">
    <path d="M 122.15232 95.943 
Q 122.15232 101.198637 122.15232 105.056731 
" clip-path="url(#p62e119618c)" style="fill: none; stroke: #2563a6; stroke-width: 1.25; stroke-linecap: round"/>
    <path d="M 124.25232 100.856731 
L 122.15232 105.056731 
L 120.05232 100.856731 
z
" clip-path="url(#p62e119618c)" style="fill: #2563a6; stroke: #2563a6; stroke-width: 1.25; stroke-linecap: round"/>
   </g>
   <g id="patch_26">
    <path d="M 208.743874 112.372502 
Q 231.313292 95.156194 247.047132 73.228159 
" clip-path="url(#p62e119618c)" style="fill: none; stroke: #c53030; stroke-width: 1.25; stroke-linecap: round"/>
    <path d="M 242.8924 75.416355 
L 247.047132 73.228159 
L 246.30485 77.864862 
z
" clip-path="url(#p62e119618c)" style="fill: #c53030; stroke: #c53030; stroke-width: 1.25; stroke-linecap: round"/>
   </g>
   <g id="patch_27">
    <path d="M 456.382217 61.92432 
Q 425.571031 61.92432 396.157386 61.92432 
" clip-path="url(#p62e119618c)" style="fill: none; stroke: #2f855a; stroke-width: 1.25; stroke-linecap: round"/>
    <path d="M 400.357386 64.02432 
L 396.157386 61.92432 
L 400.357386 59.82432 
z
" clip-path="url(#p62e119618c)" style="fill: #2f855a; stroke: #2f855a; stroke-width: 1.25; stroke-linecap: round"/>
   </g>
   <g id="patch_28">
    <path d="M 311.5152 78.864353 
Q 311.5152 88.818939 311.5152 97.375983 
" clip-path="url(#p62e119618c)" style="fill: none; stroke: #2f855a; stroke-width: 1.25; stroke-linecap: round"/>
    <path d="M 313.6152 93.175983 
L 311.5152 97.375983 
L 309.4152 93.175983 
z
" clip-path="url(#p62e119618c)" style="fill: #2f855a; stroke: #2f855a; stroke-width: 1.25; stroke-linecap: round"/>
   </g>
   <g id="patch_29">
    <path d="M 357.251596 111.872292 
Q 407.561452 106.449543 455.098939 93.753341 
" clip-path="url(#p62e119618c)" style="fill: none; stroke: #c76a1d; stroke-width: 1.25; stroke-linecap: round"/>
    <path d="M 450.499298 92.808196 
L 455.098939 93.753341 
L 451.583038 96.865967 
z
" clip-path="url(#p62e119618c)" style="fill: #c76a1d; stroke: #c76a1d; stroke-width: 1.25; stroke-linecap: round"/>
   </g>
   <g id="patch_30">
    <path d="M 267.768 112.08366 
Q 267.14304 112.08366 267.915622 112.08366 
" clip-path="url(#p62e119618c)" style="fill: none; stroke: #2f855a; stroke-width: 1.25; stroke-linecap: round"/>
    <path d="M 272.115622 114.18366 
L 267.915622 112.08366 
L 272.115622 109.98366 
z
" clip-path="url(#p62e119618c)" style="fill: #2f855a; stroke: #2f855a; stroke-width: 1.25; stroke-linecap: round"/>
   </g>
   <g id="patch_31">
    <path d="M 201.021173 162.883332 
Q 224.01974 162.883332 245.620763 162.883332 
" clip-path="url(#p62e119618c)" style="fill: none; stroke-dasharray: 4.625,2; stroke-dashoffset: 0; stroke: #7655c7; stroke-width: 1.25; stroke-linecap: round"/>
    <path d="M 241.420763 160.783332 
L 245.620763 162.883332 
L 241.420763 164.983332 
z
" clip-path="url(#p62e119618c)" style="fill: #7655c7; stroke-dasharray: 4.625,2; stroke-dashoffset: 0; stroke: #7655c7; stroke-width: 1.25; stroke-linecap: round"/>
   </g>
   <g id="patch_32">
    <path d="M 367.891482 78.861552 
Q 369.323957 100.877194 370.665692 121.498243 
" clip-path="url(#p62e119618c)" style="fill: none; stroke: #7655c7; stroke-width: 1.25; stroke-linecap: round"/>
    <path d="M 372.488559 117.170755 
L 370.665692 121.498243 
L 368.297421 117.443456 
z
" clip-path="url(#p62e119618c)" style="fill: #7655c7; stroke: #7655c7; stroke-width: 1.25; stroke-linecap: round"/>
   </g>
   <g id="patch_33">
    <path d="M 407.246721 136.430072 
Q 431.819729 133.961697 455.002193 131.633003 
" clip-path="url(#p62e119618c)" style="fill: none; stroke: #7655c7; stroke-width: 1.25; stroke-linecap: round"/>
    <path d="M 450.613334 129.963299 
L 455.002193 131.633003 
L 451.033114 134.142268 
z
" clip-path="url(#p62e119618c)" style="fill: #7655c7; stroke: #7655c7; stroke-width: 1.25; stroke-linecap: round"/>
   </g>
   <g id="patch_34">
    <path d="M 515.891772 145.902271 
Q 457.367231 168.782635 396.145309 163.603636 
" clip-path="url(#p62e119618c)" style="fill: none; stroke-dasharray: 4.625,2; stroke-dashoffset: 0; stroke: #2f855a; stroke-width: 1.25; stroke-linecap: round"/>
    <path d="M 400.153346 166.050192 
L 396.145309 163.603636 
L 400.507376 161.86514 
z
" clip-path="url(#p62e119618c)" style="fill: #2f855a; stroke-dasharray: 4.625,2; stroke-dashoffset: 0; stroke: #2f855a; stroke-width: 1.25; stroke-linecap: round"/>
   </g>
   <g id="patch_35">
    <path d="M 258.3936 152.770576 
Q 258.3936 115.816374 258.3936 80.259716 
" clip-path="url(#p62e119618c)" style="fill: none; stroke-dasharray: 4.625,2; stroke-dashoffset: 0; stroke: #2f855a; stroke-width: 1.25; stroke-linecap: round"/>
    <path d="M 256.2936 84.459716 
L 258.3936 80.259716 
L 260.4936 84.459716 
z
" clip-path="url(#p62e119618c)" style="fill: #2f855a; stroke-dasharray: 4.625,2; stroke-dashoffset: 0; stroke: #2f855a; stroke-width: 1.25; stroke-linecap: round"/>
   </g>
   <g id="text_2">
    <text style="fill: #142b3a; font: 700 9.6px 'DejaVu Sans'; text-anchor: middle" x="122.4648" y="23.98146" transform="rotate(-0 122.4648 23.98146)">Query Semantics</text>
   </g>
   <g id="text_3">
    <text style="fill: #142b3a; font: 700 9.6px 'DejaVu Sans'; text-anchor: middle" x="320.8896" y="24.01896" transform="rotate(-0 320.8896 24.01896)">SemL0 Control Plane</text>
   </g>
   <g id="text_4">
    <text style="fill: #142b3a; font: 700 9.6px 'DejaVu Sans'; text-anchor: middle" x="519.3144" y="24.01896" transform="rotate(-0 519.3144 24.01896)">LSM-CSR Graph Store</text>
   </g>
   <g id="text_5">
    <text style="fill: #142b3a; font: 700 6.9px 'DejaVu Sans'" transform="translate(82.55962 54.889612)">Property-graph read</text>
    <text style="fill: #142b3a; font: 700 6.9px 'DejaVu Sans'" transform="translate(52.621706 62.040859)">typed-neighbor / property-presence</text>
   </g>
   <g id="text_6">
    <text style="fill: #142b3a; font: 700 7.1px 'DejaVu Sans'; text-anchor: middle" x="122.4648" y="88.401802" transform="rotate(-0 122.4648 88.401802)">Query adapter / Signature builder</text>
   </g>
   <g id="text_7">
    <text style="fill: #142b3a; font: 700 7.4px 'DejaVu Sans'; text-anchor: middle" x="122.15232" y="107.693371" transform="rotate(-0 122.15232 107.693371)">GraphAccessSignature</text>
   </g>
   <g id="text_8">
    <text style="fill: #142b3a; font: 700 4.6px 'DejaVu Sans'; text-anchor: middle" x="52.46928" y="114.740358" transform="rotate(-0 52.46928 114.740358)">SRC/LBL</text>
   </g>
   <g id="text_9">
    <text style="fill: #142b3a; font: 700 4.6px 'DejaVu Sans'; text-anchor: middle" x="80.59248" y="114.740358" transform="rotate(-0 80.59248 114.740358)">ETYPE</text>
   </g>
   <g id="text_10">
    <text style="fill: #142b3a; font: 700 4.6px 'DejaVu Sans'; text-anchor: middle" x="108.71568" y="114.740358" transform="rotate(-0 108.71568 114.740358)">DIR</text>
   </g>
   <g id="text_11">
    <text style="fill: #142b3a; font: 700 4.6px 'DejaVu Sans'; text-anchor: middle" x="136.83888" y="114.740358" transform="rotate(-0 136.83888 114.740358)">DEG</text>
   </g>
   <g id="text_12">
    <text style="fill: #142b3a; font: 700 4.6px 'DejaVu Sans'; text-anchor: middle" x="164.96208" y="114.740358" transform="rotate(-0 164.96208 114.740358)">TIME</text>
   </g>
   <g id="text_13">
    <text style="fill: #142b3a; font: 700 4.6px 'DejaVu Sans'; text-anchor: middle" x="193.08528" y="114.740358" transform="rotate(-0 193.08528 114.740358)">PROP-PRES</text>
   </g>
   <g id="text_14">
    <text style="fill: #142b3a; font: 700 6.2px 'DejaVu Sans'" transform="translate(96.558972 139.396534)">Read snapshot</text>
    <text style="fill: #142b3a; font: 700 6.2px 'DejaVu Sans'" transform="translate(70.03605 145.773854)">independent visibility context</text>
   </g>
   <g id="text_15">
    <text style="fill: #142b3a; font: 700 6px 'DejaVu Sans'" transform="translate(65.159644 161.322997)">Schema catalog + segment epoch</text>
    <text style="fill: #142b3a; font: 700 6px 'DejaVu Sans'" transform="translate(68.96355 167.541472)">independent resolution context</text>
   </g>
   <g id="text_16">
    <text style="fill: #142b3a; font: 700 6.9px 'DejaVu Sans'" transform="translate(270.358959 57.237606)">Admission evidence index</text>
    <text style="fill: #142b3a; font: 700 6.9px 'DejaVu Sans'" transform="translate(256.314764 64.334946)">Exact / Conservative over-approx</text>
    <text style="fill: #142b3a; font: 700 6.9px 'DejaVu Sans'" transform="translate(274.063397 71.432286)">Budgeted rewrite policy</text>
   </g>
   <g id="text_17">
    <text style="fill: #142b3a; font: 700 5.2px 'DejaVu Sans'" transform="translate(237.572 110.823862)">SKIP</text>
    <text style="fill: #142b3a; font: 700 5.2px 'DejaVu Sans'" transform="translate(222.225906 116.172582)">proven disjoint</text>
   </g>
   <g id="text_18">
    <text style="fill: #142b3a; font: 700 6.1px 'DejaVu Sans'" transform="translate(343.129017 128.901249)">Semantic-aware</text>
    <text style="fill: #142b3a; font: 700 6.1px 'DejaVu Sans'" transform="translate(350.98515 135.175709)">compaction</text>
    <text style="fill: #142b3a; font: 700 6.1px 'DejaVu Sans'" transform="translate(342.369853 141.450169)">preserve/rebuild</text>
    <text style="fill: #142b3a; font: 700 6.1px 'DejaVu Sans'" transform="translate(343.630361 147.724629)">exact partitions</text>
   </g>
   <g id="text_19">
    <text style="fill: #142b3a; font: 700 6.2px 'DejaVu Sans'" transform="translate(285.089928 159.128885)">Persistent metadata</text>
    <text style="fill: #142b3a; font: 700 6.2px 'DejaVu Sans'" transform="translate(273.455241 165.506205)">manifest + schema catalog</text>
    <text style="fill: #142b3a; font: 700 6.2px 'DejaVu Sans'" transform="translate(291.171256 171.931962)">+ degree sidecar</text>
   </g>
   <g id="text_20">
    <text style="fill: #142b3a; font: 700 7px 'DejaVu Sans'; text-anchor: middle" x="517.752" y="63.828539" transform="rotate(-0 517.752 63.828539)">Manifest segment metadata</text>
   </g>
   <g id="text_21">
    <text style="fill: #142b3a; font: 700 7.2px 'DejaVu Sans'" transform="translate(488.644312 95.341995)">CSR segments</text>
    <text style="fill: #142b3a; font: 700 7.2px 'DejaVu Sans'" transform="translate(485.415562 102.804165)">segment bodies</text>
   </g>
   <g id="text_22">
    <text style="fill: #142b3a; font: 700 6.8px 'DejaVu Sans'" transform="translate(477.024781 128.817002)">Compaction executor</text>
    <text style="fill: #142b3a; font: 700 6.8px 'DejaVu Sans'" transform="translate(482.629469 135.811482)">apply rewrite plan</text>
    <text style="fill: #142b3a; font: 700 6.8px 'DejaVu Sans'" transform="translate(473.098844 142.859087)">unsafe -&gt; Conservative</text>
   </g>
   <g id="text_23">
    <g id="patch_36">
     <path d="M 393.742 61.029552 
L 454.274 61.029552 
L 454.274 53.427552 
L 393.742 53.427552 
z
" style="fill: #ffffff; opacity: 0.92"/>
    </g>
    <text style="fill: #2f855a; font: 6.4px 'DejaVu Sans'; text-anchor: middle" x="424.008" y="58.994552" transform="rotate(-0 424.008 58.994552)">segment evidence</text>
   </g>
   <g id="text_24">
    <g id="patch_37">
     <path d="M 383.715362 90.673759 
L 460.550878 90.673759 
L 460.550878 83.547665 
L 383.715362 83.547665 
z
" style="fill: #ffffff; opacity: 0.92"/>
    </g>
    <text style="fill: #c76a1d; font: 5.9px 'DejaVu Sans'; text-anchor: middle" x="422.13312" y="88.738743" transform="rotate(-0 422.13312 88.738743)">possible overlap -&gt; READ</text>
   </g>
   <g id="text_25">
    <g id="patch_38">
     <path d="M 440.395481 159.154401 
L 495.114919 159.154401 
L 495.114919 151.671183 
L 440.395481 151.671183 
z
" style="fill: #ffffff; opacity: 0.92"/>
    </g>
    <text style="fill: #2f855a; font: 6.3px 'DejaVu Sans'; text-anchor: middle" x="467.7552" y="157.151198" transform="rotate(-0 467.7552 157.151198)">publish evidence</text>
   </g>
   <g id="text_26">
    <g id="patch_39">
     <path d="M 268.32492 94.480869 
L 289.500795 94.480869 
L 289.500795 86.997651 
L 268.32492 86.997651 
z
" style="fill: #ffffff; opacity: 0.92"/>
    </g>
    <text style="fill: #2f855a; font: 6.3px 'DejaVu Sans'; text-anchor: start" x="269.01792" y="92.477666" transform="rotate(-0 269.01792 92.477666)">reload</text>
   </g>
  </g>
 </g>
 <defs>
  <clipPath id="p62e119618c">
   <rect x="2.16" y="2.16" width="624.96" height="213.444"/>
  </clipPath>
 </defs>
</svg>
