<?xml version="1.0" encoding="utf-8" standalone="no"?>
<!DOCTYPE svg PUBLIC "-//W3C//DTD SVG 1.1//EN"
  "http://www.w3.org/Graphics/SVG/1.1/DTD/svg11.dtd">
<svg xmlns:xlink="http://www.w3.org/1999/xlink" width="629.28pt" height="217.764pt" viewBox="0 0 629.28 217.764" xmlns="http://www.w3.org/2000/svg" version="1.1">
 <metadata>
  <rdf:RDF xmlns:dc="http://purl.org/dc/elements/1.1/" xmlns:cc="http://creativecommons.org/ns#" xmlns:rdf="http://www.w3.org/1999/02/22-rdf-syntax-ns#">
   <cc:Work>
    <dc:type rdf:resource="http://purl.org/dc/dcmitype/StillImage"/>
    <dc:date>2026-07-02T01:10:18.684047</dc:date>
    <dc:format>image/svg+xml</dc:format>
    <dc:creator>
     <cc:Agent>
      <dc:title>Matplotlib v3.7.5, https://matplotlib.org/</dc:title>
     </cc:Agent>
    </dc:creator>
   </cc:Work>
  </rdf:RDF>
 </metadata>
 <defs>
  <style type="text/css">*{stroke-linejoin: round; stroke-linecap: butt}</style>
 </defs>
 <g id="figure_1">
  <g id="patch_1">
   <path d="M 0 217.764 
L 629.28 217.764 
L 629.28 0 
L 0 0 
z
" style="fill: #ffffff"/>
  </g>
  <g id="axes_1">
   <g id="patch_2">
    <path d="M 30.2832 180.38574 
L 214.6464 180.38574 
L 214.6464 28.8405 
L 30.2832 28.8405 
z
" clip-path="url(#pefe1a10b84)" style="fill: #dceeff; stroke: #2563a6; stroke-width: 1.05; stroke-linejoin: miter"/>
   </g>
   <g id="patch_3">
    <path d="M 224.0208 180.38574 
L 417.7584 180.38574 
L 417.7584 28.8405 
L 224.0208 28.8405 
z
" clip-path="url(#pefe1a10b84)" style="fill: #e8f5ee; stroke: #2f855a; stroke-width: 1.05; stroke-linejoin: miter"/>
   </g>
   <g id="patch_4">
    <path d="M 439.632 180.38574 
L 598.9968 180.38574 
L 598.9968 28.8405 
L 439.632 28.8405 
z
" clip-path="url(#pefe1a10b84)" style="fill: #f8fafc; stroke: #142b3a; stroke-width: 1.05; stroke-linejoin: miter"/>
   </g>
   <g id="patch_5">
    <path d="M 52.1568 69.608304 
L 192.7728 69.608304 
Q 196.52256 69.608304 196.52256 68.32764 
L 196.52256 46.98324 
Q 196.52256 45.702576 192.7728 45.702576 
L 52.1568 45.702576 
Q 48.40704 45.702576 48.40704 46.98324 
L 48.40704 68.32764 
Q 48.40704 69.608304 52.1568 69.608304 
z
" clip-path="url(#pefe1a10b84)" style="fill: #ffffff; stroke: #2563a6; stroke-linejoin: miter"/>
   </g>
   <g id="patch_6">
    <path d="M 52.1568 100.557684 
L 192.7728 100.557684 
Q 196.52256 100.557684 196.52256 99.27702 
L 196.52256 83.26872 
Q 196.52256 81.988056 192.7728 81.988056 
L 52.1568 81.988056 
Q 48.40704 81.988056 48.40704 83.26872 
L 48.40704 99.27702 
Q 48.40704 100.557684 52.1568 100.557684 
z
" clip-path="url(#pefe1a10b84)" style="fill: #ffffff; stroke: #2563a6; stroke-linejoin: miter"/>
   </g>
   <g id="patch_7">
    <path d="M 45.9072 125.95752 
L 199.0224 125.95752 
L 199.0224 116.992872 
L 45.9072 116.992872 
z
" clip-path="url(#pefe1a10b84)" style="fill: #ffffff; stroke: #2563a6; stroke-width: 0.9; stroke-linejoin: miter"/>
   </g>
   <g id="patch_8">
    <path d="M 45.9072 125.95752 
L 71.4264 125.95752 
L 71.4264 116.992872 
L 45.9072 116.992872 
z
" clip-path="url(#pefe1a10b84)" style="fill: #dceeff; stroke: #2563a6; stroke-width: 0.7; stroke-linejoin: miter"/>
   </g>
   <g id="patch_9">
    <path d="M 71.4264 125.95752 
L 96.9456 125.95752 
L 96.9456 116.992872 
L 71.4264 116.992872 
z
" clip-path="url(#pefe1a10b84)" style="fill: #dceeff; stroke: #2563a6; stroke-width: 0.7; stroke-linejoin: miter"/>
   </g>
   <g id="patch_10">
    <path d="M 96.9456 125.95752 
L 122.4648 125.95752 
L 122.4648 116.992872 
L 96.9456 116.992872 
z
" clip-path="url(#pefe1a10b84)" style="fill: #dceeff; stroke: #2563a6; stroke-width: 0.7; stroke-linejoin: miter"/>
   </g>
   <g id="patch_11">
    <path d="M 122.4648 125.95752 
L 147.984 125.95752 
L 147.984 116.992872 
L 122.4648 116.992872 
z
" clip-path="url(#pefe1a10b84)" style="fill: #dceeff; stroke: #2563a6; stroke-width: 0.7; stroke-linejoin: miter"/>
   </g>
   <g id="patch_12">
    <path d="M 147.984 125.95752 
L 173.5032 125.95752 
L 173.5032 116.992872 
L 147.984 116.992872 
z
" clip-path="url(#pefe1a10b84)" style="fill: #dceeff; stroke: #2563a6; stroke-width: 0.7; stroke-linejoin: miter"/>
   </g>
   <g id="patch_13">
    <path d="M 173.5032 125.95752 
L 199.0224 125.95752 
L 199.0224 116.992872 
L 173.5032 116.992872 
z
" clip-path="url(#pefe1a10b84)" style="fill: #dceeff; stroke: #2563a6; stroke-width: 0.7; stroke-linejoin: miter"/>
   </g>
   <g id="patch_14">
    <path d="M 249.0192 78.146064 
L 392.76 78.146064 
Q 396.50976 78.146064 396.50976 76.8654 
L 396.50976 48.05046 
Q 396.50976 46.769796 392.76 46.769796 
L 249.0192 46.769796 
Q 245.26944 46.769796 245.26944 48.05046 
L 245.26944 76.8654 
Q 245.26944 78.146064 249.0192 78.146064 
z
" clip-path="url(#pefe1a10b84)" style="fill: #ffffff; stroke: #2f855a; stroke-linejoin: miter"/>
   </g>
   <g id="patch_15">
    <path d="M 227.1456 118.273536 
L 259.64352 118.273536 
Q 263.39328 118.273536 263.39328 116.992872 
L 263.39328 106.74756 
Q 263.39328 105.466896 259.64352 105.466896 
L 227.1456 105.466896 
Q 223.39584 105.466896 223.39584 106.74756 
L 223.39584 116.992872 
Q 223.39584 118.273536 227.1456 118.273536 
z
" clip-path="url(#pefe1a10b84)" style="fill: #e8f5ee; stroke: #2f855a; stroke-linejoin: miter"/>
   </g>
   <g id="patch_16">
    <path d="M 336.5136 149.649804 
L 405.2592 149.649804 
Q 409.00896 149.649804 409.00896 148.36914 
L 409.00896 124.8903 
Q 409.00896 123.609636 405.2592 123.609636 
L 336.5136 123.609636 
Q 332.76384 123.609636 332.76384 124.8903 
L 332.76384 148.36914 
Q 332.76384 149.649804 336.5136 149.649804 
z
" clip-path="url(#pefe1a10b84)" style="fill: #ffffff; stroke: #7655c7; stroke-linejoin: miter"/>
   </g>
   <g id="patch_17">
    <path d="M 249.0192 173.128644 
L 392.76 173.128644 
Q 396.50976 173.128644 396.50976 171.84798 
L 396.50976 154.77246 
Q 396.50976 153.491796 392.76 153.491796 
L 249.0192 153.491796 
Q 245.26944 153.491796 245.26944 154.77246 
L 245.26944 171.84798 
Q 245.26944 173.128644 249.0192 173.128644 
z
" clip-path="url(#pefe1a10b84)" style="fill: #ffffff; stroke: #2f855a; stroke-linejoin: miter"/>
   </g>
   <g id="patch_18">
    <path d="M 458.3808 72.809964 
L 577.1232 72.809964 
Q 580.87296 72.809964 580.87296 71.5293 
L 580.87296 52.31934 
Q 580.87296 51.038676 577.1232 51.038676 
L 458.3808 51.038676 
Q 454.63104 51.038676 454.63104 52.31934 
L 454.63104 71.5293 
Q 454.63104 72.809964 458.3808 72.809964 
z
" clip-path="url(#pefe1a10b84)" style="fill: #e8f5ee; stroke: #2f855a; stroke-linejoin: miter"/>
   </g>
   <g id="patch_19">
    <path d="M 458.3808 110.162664 
L 577.1232 110.162664 
Q 580.87296 110.162664 580.87296 108.882 
L 580.87296 85.40316 
Q 580.87296 84.122496 577.1232 84.122496 
L 458.3808 84.122496 
Q 454.63104 84.122496 454.63104 85.40316 
L 454.63104 108.882 
Q 454.63104 110.162664 458.3808 110.162664 
z
" clip-path="url(#pefe1a10b84)" style="fill: #ffffff; stroke: #142b3a; stroke-linejoin: miter"/>
   </g>
   <g id="patch_20">
    <path d="M 458.3808 146.448144 
L 577.1232 146.448144 
Q 580.87296 146.448144 580.87296 145.16748 
L 580.87296 122.75586 
Q 580.87296 121.475196 577.1232 121.475196 
L 458.3808 121.475196 
Q 454.63104 121.475196 454.63104 122.75586 
L 454.63104 145.16748 
Q 454.63104 146.448144 458.3808 146.448144 
z
" clip-path="url(#pefe1a10b84)" style="fill: #eee7ff; stroke: #7655c7; stroke-linejoin: miter"/>
   </g>
   <g id="patch_21">
    <path d="M 311.5152 100.87785 
L 355.2624 112.08366 
L 311.5152 123.28947 
L 267.768 112.08366 
z
" clip-path="url(#pefe1a10b84)" style="fill: #ffffff; stroke: #2563a6; stroke-width: 1.05; stroke-linejoin: miter"/>
   </g>
   <g id="text_1">
    <text style="fill: #142b3a; font: 700 6.8px 'DejaVu Sans'" transform="translate(281.273794 110.436232)">Read admission</text>
    <text style="fill: #142b3a; font: 700 6.8px 'DejaVu Sans'" transform="translate(302.855825 117.430712)">gate</text>
   </g>
   <g id="patch_22">
    <path d="M 122.15232 70.330241 
Q 122.15232 75.799718 122.15232 79.871652 
" clip-path="url(#pefe1a10b84)" style="fill: none; stroke: #2563a6; stroke-width: 1.25; stroke-linecap: round"/>
    <path d="M 124.25232 75.671652 
L 122.15232 79.871652 
L 120.05232 75.671652 
z
" clip-path="url(#pefe1a10b84)" style="fill: #2563a6; stroke: #2563a6; stroke-width: 1.25; stroke-linecap: round"/>
   </g>
   <g id="patch_23">
    <path d="M 122.15232 101.28108 
Q 122.15232 108.029445 122.15232 113.380268 
" clip-path="url(#pefe1a10b84)" style="fill: none; stroke: #2563a6; stroke-width: 1.25; stroke-linecap: round"/>
    <path d="M 124.25232 109.180268 
L 122.15232 113.380268 
L 120.05232 109.180268 
z
" clip-path="url(#pefe1a10b84)" style="fill: #2563a6; stroke: #2563a6; stroke-width: 1.25; stroke-linecap: round"/>
   </g>
   <g id="patch_24">
    <path d="M 200.624191 120.2798 
Q 227.8805 99.754763 247.035383 73.224566 
" clip-path="url(#pefe1a10b84)" style="fill: none; stroke: #c53030; stroke-width: 1.25; stroke-linecap: round"/>
    <path d="M 242.87421 75.400488 
L 247.035383 73.224566 
L 246.279417 77.859057 
z
" clip-path="url(#pefe1a10b84)" style="fill: #c53030; stroke: #c53030; stroke-width: 1.25; stroke-linecap: round"/>
   </g>
   <g id="patch_25">
    <path d="M 456.382217 61.92432 
Q 425.571031 61.92432 396.157386 61.92432 
" clip-path="url(#pefe1a10b84)" style="fill: none; stroke: #2f855a; stroke-width: 1.25; stroke-linecap: round"/>
    <path d="M 400.357386 64.02432 
L 396.157386 61.92432 
L 400.357386 59.82432 
z
" clip-path="url(#pefe1a10b84)" style="fill: #2f855a; stroke: #2f855a; stroke-width: 1.25; stroke-linecap: round"/>
   </g>
   <g id="patch_26">
    <path d="M 311.5152 78.864353 
Q 311.5152 88.818939 311.5152 97.375983 
" clip-path="url(#pefe1a10b84)" style="fill: none; stroke: #2f855a; stroke-width: 1.25; stroke-linecap: round"/>
    <path d="M 313.6152 93.175983 
L 311.5152 97.375983 
L 309.4152 93.175983 
z
" clip-path="url(#pefe1a10b84)" style="fill: #2f855a; stroke: #2f855a; stroke-width: 1.25; stroke-linecap: round"/>
   </g>
   <g id="patch_27">
    <path d="M 357.251596 111.872292 
Q 407.561452 106.449543 455.098939 93.753341 
" clip-path="url(#pefe1a10b84)" style="fill: none; stroke: #c76a1d; stroke-width: 1.25; stroke-linecap: round"/>
    <path d="M 450.499298 92.808196 
L 455.098939 93.753341 
L 451.583038 96.865967 
z
" clip-path="url(#pefe1a10b84)" style="fill: #c76a1d; stroke: #c76a1d; stroke-width: 1.25; stroke-linecap: round"/>
   </g>
   <g id="patch_28">
    <path d="M 265.764649 112.08366 
Q 263.703849 112.08366 263.040592 112.08366 
" clip-path="url(#pefe1a10b84)" style="fill: none; stroke: #2f855a; stroke-width: 1.25; stroke-linecap: round"/>
    <path d="M 267.240592 114.18366 
L 263.040592 112.08366 
L 267.240592 109.98366 
z
" clip-path="url(#pefe1a10b84)" style="fill: #2f855a; stroke: #2f855a; stroke-width: 1.25; stroke-linecap: round"/>
   </g>
   <g id="patch_29">
    <path d="M 367.891482 78.861552 
Q 369.323957 100.877194 370.665692 121.498243 
" clip-path="url(#pefe1a10b84)" style="fill: none; stroke: #7655c7; stroke-width: 1.25; stroke-linecap: round"/>
    <path d="M 372.488559 117.170755 
L 370.665692 121.498243 
L 368.297421 117.443456 
z
" clip-path="url(#pefe1a10b84)" style="fill: #7655c7; stroke: #7655c7; stroke-width: 1.25; stroke-linecap: round"/>
   </g>
   <g id="patch_30">
    <path d="M 407.246721 136.430072 
Q 431.819729 133.961697 455.002193 131.633003 
" clip-path="url(#pefe1a10b84)" style="fill: none; stroke: #7655c7; stroke-width: 1.25; stroke-linecap: round"/>
    <path d="M 450.613334 129.963299 
L 455.002193 131.633003 
L 451.033114 134.142268 
z
" clip-path="url(#pefe1a10b84)" style="fill: #7655c7; stroke: #7655c7; stroke-width: 1.25; stroke-linecap: round"/>
   </g>
   <g id="patch_31">
    <path d="M 515.891772 145.902271 
Q 457.367231 168.782635 396.145309 163.603636 
" clip-path="url(#pefe1a10b84)" style="fill: none; stroke-dasharray: 4.625,2; stroke-dashoffset: 0; stroke: #2f855a; stroke-width: 1.25; stroke-linecap: round"/>
    <path d="M 400.153346 166.050192 
L 396.145309 163.603636 
L 400.507376 161.86514 
z
" clip-path="url(#pefe1a10b84)" style="fill: #2f855a; stroke-dasharray: 4.625,2; stroke-dashoffset: 0; stroke: #2f855a; stroke-width: 1.25; stroke-linecap: round"/>
   </g>
   <g id="patch_32">
    <path d="M 258.3936 152.770576 
Q 258.3936 115.816374 258.3936 80.259716 
" clip-path="url(#pefe1a10b84)" style="fill: none; stroke-dasharray: 4.625,2; stroke-dashoffset: 0; stroke: #2f855a; stroke-width: 1.25; stroke-linecap: round"/>
    <path d="M 256.2936 84.459716 
L 258.3936 80.259716 
L 260.4936 84.459716 
z
" clip-path="url(#pefe1a10b84)" style="fill: #2f855a; stroke-dasharray: 4.625,2; stroke-dashoffset: 0; stroke: #2f855a; stroke-width: 1.25; stroke-linecap: round"/>
   </g>
   <g id="text_2">
    <text style="fill: #142b3a; font: 700 9.6px 'DejaVu Sans'; text-anchor: middle" x="122.4648" y="23.98146" transform="rotate(-0 122.4648 23.98146)">Query Semantics</text>
   </g>
   <g id="text_3">
    <text style="fill: #142b3a; font: 700 9.6px 'DejaVu Sans'; text-anchor: middle" x="320.8896" y="24.01896" transform="rotate(-0 320.8896 24.01896)">SemL0 Control Plane</text>
   </g>
   <g id="text_4">
    <text style="fill: #142b3a; font: 700 9.6px 'DejaVu Sans'; text-anchor: middle" x="519.3144" y="24.01896" transform="rotate(-0 519.3144 24.01896)">LSM-CSR Graph Store</text>
   </g>
   <g id="text_5">
    <text style="fill: #142b3a; font: 700 7.2px 'DejaVu Sans'" transform="translate(80.824613 55.88298)">Property-graph read</text>
    <text style="fill: #142b3a; font: 700 7.2px 'DejaVu Sans'" transform="translate(55.699988 63.34515)">typed-neighbor / property-aware</text>
   </g>
   <g id="text_6">
    <text style="fill: #142b3a; font: 700 7.6px 'DejaVu Sans'; text-anchor: middle" x="122.4648" y="93.340307" transform="rotate(-0 122.4648 93.340307)">Signature compiler</text>
   </g>
   <g id="text_7">
    <text style="fill: #142b3a; font: 700 7.4px 'DejaVu Sans'; text-anchor: middle" x="122.15232" y="117.298351" transform="rotate(-0 122.15232 117.298351)">GraphAccessSignature</text>
   </g>
   <g id="text_8">
    <text style="fill: #142b3a; font: 700 5.4px 'DejaVu Sans'; text-anchor: middle" x="58.6668" y="122.965258" transform="rotate(-0 58.6668 122.965258)">LBL</text>
   </g>
   <g id="text_9">
    <text style="fill: #142b3a; font: 700 5.4px 'DejaVu Sans'; text-anchor: middle" x="84.186" y="122.965258" transform="rotate(-0 84.186 122.965258)">ETYPE</text>
   </g>
   <g id="text_10">
    <text style="fill: #142b3a; font: 700 5.4px 'DejaVu Sans'; text-anchor: middle" x="109.7052" y="122.965258" transform="rotate(-0 109.7052 122.965258)">DIR</text>
   </g>
   <g id="text_11">
    <text style="fill: #142b3a; font: 700 5.4px 'DejaVu Sans'; text-anchor: middle" x="135.2244" y="122.965258" transform="rotate(-0 135.2244 122.965258)">PROP</text>
   </g>
   <g id="text_12">
    <text style="fill: #142b3a; font: 700 5.4px 'DejaVu Sans'; text-anchor: middle" x="160.7436" y="122.965258" transform="rotate(-0 160.7436 122.965258)">SNAP</text>
   </g>
   <g id="text_13">
    <text style="fill: #142b3a; font: 700 5.4px 'DejaVu Sans'; text-anchor: middle" x="186.2628" y="122.965258" transform="rotate(-0 186.2628 122.965258)">EPOCH</text>
   </g>
   <g id="text_14">
    <text style="fill: #142b3a; font: 700 7.3px 'DejaVu Sans'" transform="translate(269.494748 56.934978)">Semantic evidence index</text>
    <text style="fill: #142b3a; font: 700 7.3px 'DejaVu Sans'" transform="translate(281.795248 64.443758)">Exactness contract</text>
    <text style="fill: #142b3a; font: 700 7.3px 'DejaVu Sans'" transform="translate(271.348834 71.952538)">Budgeted rewrite policy</text>
   </g>
   <g id="text_15">
    <text style="fill: #142b3a; font: 700 7px 'DejaVu Sans'; text-anchor: middle" x="243.39456" y="113.801778" transform="rotate(-0 243.39456 113.801778)">SKIP</text>
   </g>
   <g id="text_16">
    <text style="fill: #142b3a; font: 700 6.1px 'DejaVu Sans'" transform="translate(343.129017 128.901249)">Semantic-aware</text>
    <text style="fill: #142b3a; font: 700 6.1px 'DejaVu Sans'" transform="translate(350.98515 135.175709)">compaction</text>
    <text style="fill: #142b3a; font: 700 6.1px 'DejaVu Sans'" transform="translate(342.369853 141.450169)">preserve/rebuild</text>
    <text style="fill: #142b3a; font: 700 6.1px 'DejaVu Sans'" transform="translate(343.630361 147.724629)">exact partitions</text>
   </g>
   <g id="text_17">
    <text style="fill: #142b3a; font: 700 6.8px 'DejaVu Sans'" transform="translate(267.027225 161.552165)">Persistent Evidence Catalog</text>
    <text style="fill: #142b3a; font: 700 6.8px 'DejaVu Sans'" transform="translate(235.125663 168.6319)">segment evidence | schema/epoch | live files</text>
   </g>
   <g id="text_18">
    <text style="fill: #142b3a; font: 700 7.2px 'DejaVu Sans'; text-anchor: middle" x="517.752" y="63.882945" transform="rotate(-0 517.752 63.882945)">Segment metadata</text>
   </g>
   <g id="text_19">
    <text style="fill: #142b3a; font: 700 7.2px 'DejaVu Sans'" transform="translate(488.644312 95.341995)">CSR segments</text>
    <text style="fill: #142b3a; font: 700 7.2px 'DejaVu Sans'" transform="translate(485.415562 102.804165)">segment bodies</text>
   </g>
   <g id="text_20">
    <text style="fill: #142b3a; font: 700 6.8px 'DejaVu Sans'" transform="translate(477.024781 128.817002)">Compaction executor</text>
    <text style="fill: #142b3a; font: 700 6.8px 'DejaVu Sans'" transform="translate(482.629469 135.811482)">apply rewrite plan</text>
    <text style="fill: #142b3a; font: 700 6.8px 'DejaVu Sans'" transform="translate(473.098844 142.859087)">unsafe -&gt; Conservative</text>
   </g>
   <g id="text_21">
    <g id="patch_33">
     <path d="M 393.742 61.029552 
L 454.274 61.029552 
L 454.274 53.427552 
L 393.742 53.427552 
z
" style="fill: #ffffff; opacity: 0.92"/>
    </g>
    <text style="fill: #2f855a; font: 6.4px 'DejaVu Sans'; text-anchor: middle" x="424.008" y="58.994552" transform="rotate(-0 424.008 58.994552)">segment evidence</text>
   </g>
   <g id="text_22">
    <g id="patch_34">
     <path d="M 403.59862 90.911712 
L 440.66762 90.911712 
L 440.66762 83.309712 
L 403.59862 83.309712 
z
" style="fill: #ffffff; opacity: 0.92"/>
    </g>
    <text style="fill: #c76a1d; font: 6.4px 'DejaVu Sans'; text-anchor: middle" x="422.13312" y="88.876712" transform="rotate(-0 422.13312 88.876712)">READ body</text>
   </g>
   <g id="text_23">
    <g id="patch_35">
     <path d="M 440.395481 159.154401 
L 495.114919 159.154401 
L 495.114919 151.671183 
L 440.395481 151.671183 
z
" style="fill: #ffffff; opacity: 0.92"/>
    </g>
    <text style="fill: #2f855a; font: 6.3px 'DejaVu Sans'; text-anchor: middle" x="467.7552" y="157.151198" transform="rotate(-0 467.7552 157.151198)">publish evidence</text>
   </g>
   <g id="text_24">
    <g id="patch_36">
     <path d="M 268.32492 94.480869 
L 289.500795 94.480869 
L 289.500795 86.997651 
L 268.32492 86.997651 
z
" style="fill: #ffffff; opacity: 0.92"/>
    </g>
    <text style="fill: #2f855a; font: 6.3px 'DejaVu Sans'; text-anchor: start" x="269.01792" y="92.477666" transform="rotate(-0 269.01792 92.477666)">reload</text>
   </g>
  </g>
 </g>
 <defs>
  <clipPath id="pefe1a10b84">
   <rect x="2.16" y="2.16" width="624.96" height="213.444"/>
  </clipPath>
 </defs>
</svg>
